<?xml version="1.0" standalone="no"?>

<!DOCTYPE svg PUBLIC "-//W3C//DTD SVG 20010904//EN"

 "http://www.w3.org/TR/2001/REC-SVG-20010904/DTD/svg10.dtd">

<svg version="1.0" xmlns="http://www.w3.org/2000/svg"

 width="2000.000000pt" height="2000.000000pt" viewBox="0 0 2000.000000 2000.000000"

 preserveAspectRatio="xMidYMid meet">

<path fill="#070208" stroke="none" d="
M0 1000

L0 0

L1000 0

L2000 0

L2000 1000

L2000 2000

L1000 2000

L0 2000

L0 1000

Z

"/>

<path fill="#2c2931" stroke="none" d="
M0 1000

L0 0

L1000 0

L2000 0

L2000 1000

L2000 2000

L1000 2000

L0 2000

L0 1000

Z

M933 1613

C958 1607 967 1607 976 1613

C979 1615 981 1616 982 1616

L982 1616

L982 1611

C982 1599 976 1585 971 1581

C965 1578 957 1576 953 1576

C944 1577 937 1581 923 1592

C908 1605 905 1606 898 1606

C891 1605 888 1602 888 1595

C889 1585 896 1580 916 1575

C940 1567 956 1560 966 1552

C978 1543 988 1526 992 1511

C995 1501 995 1484 993 1476

C991 1469 985 1461 979 1458

C973 1454 963 1453 957 1455

C951 1457 946 1461 945 1466

C943 1472 943 1483 946 1488

C948 1492 952 1496 955 1496

L956 1496

L956 1494

C956 1494 957 1492 959 1491

C967 1486 976 1493 976 1503

C976 1509 973 1518 969 1528

C963 1539 956 1546 948 1548

C944 1549 943 1549 942 1548

C940 1546 927 1505 925 1495

C924 1492 924 1486 924 1481

C924 1472 925 1469 929 1463

L930 1460

L928 1458

C926 1456 926 1456 916 1458

C904 1460 887 1459 878 1457

C875 1456 872 1455 872 1455

C871 1455 869 1461 870 1463

L870 1466

L869 1466

C868 1466 867 1465 866 1465

C861 1462 852 1460 841 1460

C829 1460 822 1462 814 1466

C809 1470 795 1482 791 1487

L789 1490

L788 1490

L786 1489

L786 1473

C785 1447 787 1434 794 1423

L797 1418

L795 1416

C794 1414 793 1414 789 1415

C776 1418 754 1419 742 1415

C736 1414 735 1415 733 1418

C733 1419 734 1421 736 1424

C743 1432 746 1450 748 1484

C749 1509 749 1522 746 1541

C743 1557 742 1563 737 1568

C733 1572 733 1573 736 1575

C738 1577 738 1577 747 1576

C759 1574 777 1574 788 1576

C792 1576 796 1577 797 1577

L798 1577

L799 1575

C799 1573 798 1571 796 1568

C786 1557 783 1532 789 1519

L792 1513

L794 1513

C799 1514 811 1534 815 1548

C818 1557 817 1563 814 1569

C811 1574 811 1574 813 1576

C814 1578 815 1578 819 1576

C828 1574 856 1573 866 1575

C874 1577 875 1577 876 1574

C877 1573 875 1569 869 1562

C855 1545 848 1529 846 1514

C846 1509 845 1506 844 1506

C843 1506 838 1504 832 1503

C819 1500 810 1496 806 1491

L804 1489

L808 1484

C815 1478 822 1476 832 1476

C839 1477 839 1477 843 1480

C846 1484 846 1485 846 1488

C846 1491 845 1493 845 1494

L844 1496

L848 1498

C852 1500 860 1499 866 1496

C871 1494 875 1487 875 1480

L875 1474

L877 1474

C879 1474 882 1483 889 1502

C895 1519 906 1555 907 1559

L907 1563

L900 1566

C887 1572 878 1582 877 1594

C876 1604 881 1612 891 1615

C899 1618 917 1617 933 1613

Z

M703 1576

C720 1571 726 1567 731 1557

C734 1550 734 1544 731 1536

C728 1530 721 1523 716 1522

C710 1520 698 1521 693 1524

L689 1526

L692 1531

C702 1550 694 1568 676 1568

C662 1569 658 1563 654 1541

C649 1511 653 1475 662 1468

C666 1465 670 1464 675 1466

C678 1468 680 1469 682 1474

C687 1485 693 1492 698 1495

C701 1497 703 1497 709 1497

C717 1496 721 1494 724 1487

C727 1481 731 1463 730 1461

C729 1461 727 1461 725 1462

C718 1464 707 1463 692 1459

C680 1456 677 1456 668 1456

C655 1456 644 1458 636 1463

C628 1467 619 1476 614 1486

C599 1516 606 1549 632 1565

C648 1575 660 1578 683 1578

C692 1577 699 1577 703 1576

Z

M1556 1576

C1576 1572 1593 1557 1599 1536

C1604 1521 1603 1502 1595 1488

C1588 1474 1574 1463 1559 1458

C1549 1455 1532 1454 1522 1456

C1501 1461 1483 1477 1476 1498

C1473 1505 1473 1523 1475 1533

C1480 1546 1491 1561 1503 1568

C1517 1577 1539 1580 1556 1576

Z

M472 1575

C473 1573 473 1572 470 1568

C466 1563 464 1557 462 1546

C460 1535 460 1461 461 1450

C463 1439 465 1430 470 1425

C474 1419 474 1419 471 1416

L469 1414

L465 1416

C462 1417 456 1417 443 1418

C427 1418 424 1418 418 1416

L411 1414

L410 1415

C408 1419 408 1421 410 1424

C419 1434 421 1448 423 1499

C423 1520 423 1526 422 1536

C419 1555 416 1564 411 1568

C409 1571 408 1572 411 1574

C413 1576 413 1576 417 1574

C424 1572 452 1572 461 1575

C470 1577 470 1577 472 1575

Z

M560 1574

C577 1571 585 1571 593 1574

L600 1577

L602 1574

L604 1571

L601 1568

C595 1558 591 1531 592 1504

C594 1481 596 1469 602 1462

L604 1460

L603 1458

L602 1455

L596 1457

C590 1459 587 1459 572 1459

C560 1459 554 1459 550 1458

C544 1456 544 1456 543 1458

C542 1460 542 1461 545 1465

C552 1476 555 1492 555 1515

C555 1551 548 1568 533 1568

C524 1568 519 1561 519 1550

C519 1545 519 1543 525 1534

C534 1518 538 1507 539 1494

C541 1481 536 1467 527 1461

C520 1457 515 1456 500 1458

C487 1459 485 1459 478 1456

L477 1456

L477 1461

C477 1468 479 1475 484 1480

C487 1483 488 1484 491 1484

C496 1484 500 1482 503 1476

C509 1467 515 1465 519 1470

C522 1473 521 1478 517 1483

C516 1486 508 1493 499 1500

C478 1517 474 1524 475 1540

C476 1550 479 1557 486 1565

C492 1570 497 1574 505 1576

C513 1578 543 1577 560 1574

Z

M1078 1573

C1095 1573 1097 1573 1102 1575

L1108 1577

L1109 1577

C1109 1577 1109 1575 1110 1574

C1111 1572 1111 1571 1108 1568

C1104 1563 1102 1558 1099 1550

C1098 1545 1098 1541 1098 1521

C1097 1486 1100 1474 1107 1468

C1119 1457 1135 1467 1131 1484

C1130 1487 1127 1496 1125 1503

C1117 1521 1116 1530 1116 1542

C1117 1551 1117 1553 1120 1558

C1124 1566 1131 1573 1138 1576

C1145 1578 1168 1577 1172 1575

L1175 1573

L1171 1571

C1162 1565 1157 1554 1158 1540

C1159 1531 1159 1529 1166 1518

C1169 1513 1172 1507 1173 1505

C1174 1498 1174 1487 1172 1479

C1170 1472 1171 1471 1179 1467

C1185 1465 1189 1464 1194 1467

C1198 1470 1200 1473 1200 1479

C1200 1484 1200 1485 1193 1496

C1189 1502 1184 1511 1181 1517

C1176 1527 1176 1527 1175 1537

C1175 1546 1175 1547 1177 1552

C1181 1559 1190 1568 1197 1571

C1203 1574 1213 1577 1219 1577

C1224 1577 1235 1574 1238 1571

C1248 1564 1247 1548 1237 1542

C1233 1539 1222 1540 1217 1544

L1217 1544

L1219 1548

C1222 1552 1223 1555 1221 1560

C1219 1564 1216 1566 1212 1566

C1206 1566 1202 1557 1205 1547

C1206 1544 1208 1541 1216 1534

C1239 1514 1242 1509 1243 1496

C1243 1487 1241 1479 1236 1472

C1233 1467 1231 1466 1224 1462

C1206 1453 1187 1453 1168 1461

C1161 1465 1161 1465 1155 1461

C1140 1454 1122 1453 1096 1459

C1088 1460 1078 1461 1073 1462

C1065 1462 1063 1462 1057 1460

C1054 1459 1051 1458 1051 1458

C1050 1458 1049 1459 1048 1461

C1047 1464 1047 1464 1051 1472

C1057 1485 1059 1496 1059 1517

C1060 1543 1057 1557 1050 1566

C1046 1569 1046 1570 1048 1573

L1049 1577

L1054 1575

C1058 1573 1060 1573 1078 1573

Z

M1254 1575

C1263 1572 1270 1571 1291 1574

C1310 1577 1310 1577 1315 1575

C1322 1573 1353 1573 1361 1575

C1367 1577 1367 1577 1369 1575

C1371 1575 1372 1573 1372 1573

C1372 1572 1371 1570 1369 1568

C1360 1556 1357 1543 1357 1513

C1357 1484 1359 1471 1366 1465

C1371 1461 1378 1462 1382 1468

C1386 1474 1384 1480 1378 1490

C1371 1500 1370 1508 1374 1517

C1379 1525 1385 1529 1393 1529

L1399 1529

L1398 1527

C1397 1518 1398 1517 1407 1506

C1417 1493 1416 1475 1405 1466

C1398 1460 1392 1457 1383 1456

C1375 1455 1369 1455 1349 1458

C1333 1460 1327 1460 1316 1457

C1309 1456 1309 1456 1300 1458

C1288 1461 1267 1461 1257 1459

C1253 1458 1250 1457 1249 1456

L1247 1456

L1245 1458

L1244 1460

L1247 1464

C1251 1469 1254 1475 1257 1490

C1259 1503 1259 1504 1259 1523

C1258 1550 1255 1562 1248 1569

L1245 1571

L1247 1574

C1248 1576 1249 1577 1249 1577

C1249 1577 1251 1576 1254 1575

Z

M1472 1575

C1473 1572 1473 1572 1471 1569

C1465 1561 1463 1554 1461 1531

C1459 1512 1460 1452 1462 1443

C1464 1434 1467 1428 1471 1423

L1474 1419

L1472 1417

L1470 1414

L1465 1416

C1458 1418 1429 1419 1420 1417

C1417 1416 1414 1415 1413 1414

L1411 1414

L1410 1417

C1408 1420 1408 1420 1412 1426

C1420 1438 1422 1452 1422 1501

C1422 1532 1422 1538 1421 1545

C1418 1557 1416 1564 1412 1568

L1409 1571

L1411 1574

L1412 1576

L1414 1575

C1425 1571 1453 1571 1465 1576

C1466 1576 1468 1577 1469 1577

L1471 1577

L1472 1575

Z

M1288 1449

C1295 1445 1298 1439 1299 1432

C1300 1417 1290 1406 1275 1406

C1262 1406 1251 1416 1251 1428

C1251 1437 1257 1447 1265 1451

C1272 1454 1281 1453 1288 1449

Z

M732 1382

C769 1376 805 1359 835 1336

C839 1332 850 1323 859 1314

C875 1298 891 1285 908 1272

C923 1262 946 1248 948 1248

L950 1249

L950 1253

C951 1266 946 1312 941 1336

C940 1342 939 1346 939 1347

C939 1347 944 1346 950 1344

C981 1334 1019 1334 1051 1344

C1056 1346 1061 1347 1062 1347

L1062 1347

L1061 1343

C1061 1341 1060 1335 1059 1330

C1055 1310 1050 1254 1051 1250

L1052 1248

L1054 1248

C1057 1248 1083 1265 1103 1280

C1118 1291 1127 1299 1144 1315

C1167 1338 1184 1350 1209 1363

C1244 1379 1274 1386 1314 1385

C1338 1384 1350 1382 1369 1377

C1407 1366 1439 1348 1466 1321

L1476 1311

L1458 1280

C1449 1263 1433 1237 1424 1222

C1416 1206 1384 1152 1355 1101

C1247 913 1256 928 1252 929

C1244 930 1219 939 1204 946

C1192 953 1171 966 1161 975

C1156 979 1146 989 1138 996

C1120 1014 1099 1030 1071 1048

C1061 1054 1058 1055 1057 1053

C1056 1052 1062 1032 1069 1017

C1081 986 1104 948 1126 918

C1136 905 1143 897 1160 880

C1173 866 1185 850 1193 837

C1198 829 1198 829 1166 773

C1102 662 1035 547 1018 517

C1008 500 1000 486 1000 486

C999 486 1009 470 844 755

C822 794 804 826 803 827

C802 832 826 865 844 882

C875 912 914 972 933 1018

C939 1033 945 1052 944 1053

C943 1055 941 1054 933 1049

C903 1031 881 1014 861 995

C842 976 833 968 818 958

C804 950 789 942 774 936

C762 932 745 927 745 928

C744 928 730 953 713 984

C695 1014 671 1056 658 1078

C645 1100 623 1139 607 1166

C592 1193 574 1223 568 1234

C531 1298 525 1309 525 1310

C525 1312 540 1327 551 1335

C582 1361 622 1378 663 1383

C679 1386 717 1385 732 1382

Z

M1532 1567

C1529 1566 1524 1560 1523 1554

C1519 1542 1517 1521 1519 1498

C1520 1478 1522 1472 1527 1467

C1530 1463 1531 1463 1536 1463

C1543 1463 1549 1466 1552 1472

C1557 1483 1559 1510 1557 1539

C1556 1555 1553 1563 1545 1567

C1542 1568 1536 1568 1532 1567

Z

M1305 1565

C1297 1556 1296 1550 1296 1517

C1296 1494 1296 1488 1297 1483

C1299 1476 1303 1468 1306 1465

L1308 1464

L1310 1465

C1312 1466 1317 1476 1318 1483

C1319 1487 1320 1498 1320 1518

C1320 1545 1319 1547 1317 1554

C1315 1561 1311 1568 1309 1568

C1308 1568 1307 1567 1305 1565

Z

"/>

<path fill="#56545b" stroke="none" d="
M0 1000

L0 0

L1000 0

L2000 0

L2000 1000

L2000 2000

L1000 2000

L0 2000

L0 1000

Z

M919 1617

C922 1616 930 1615 937 1613

C958 1608 967 1608 977 1614

L982 1618

L982 1617

C984 1616 983 1606 981 1598

C978 1586 975 1582 967 1579

C954 1572 944 1575 925 1590

C908 1603 906 1605 899 1605

C892 1605 889 1602 889 1596

C889 1586 897 1580 923 1573

C935 1570 953 1562 963 1555

C970 1550 976 1544 982 1535

C992 1521 995 1507 995 1489

C995 1478 994 1477 991 1471

C985 1458 974 1452 962 1453

C959 1454 955 1455 953 1455

C950 1457 945 1462 944 1465

C942 1470 943 1483 945 1488

C947 1492 952 1497 955 1497

L956 1497

L956 1496

C956 1495 957 1494 958 1492

C962 1489 967 1489 971 1493

C974 1495 974 1497 975 1501

C976 1513 968 1532 958 1541

C953 1546 947 1549 943 1548

C941 1547 928 1507 926 1494

C923 1481 924 1473 928 1466

C930 1463 931 1461 931 1460

C931 1460 930 1458 929 1457

C926 1455 926 1455 917 1457

C907 1459 886 1458 877 1456

L872 1454

L870 1457

C869 1459 868 1461 868 1462

L869 1464

L868 1464

C868 1464 865 1463 862 1462

C857 1460 852 1460 843 1459

C833 1459 830 1459 824 1461

C815 1464 805 1471 796 1481

L788 1489

L788 1489

C787 1489 787 1481 786 1472

C785 1446 788 1433 795 1422

L798 1418

L796 1416

C794 1413 794 1413 787 1415

C777 1417 749 1417 742 1415

L736 1413

L734 1415

C732 1418 732 1420 735 1424

C742 1433 745 1449 747 1480

C749 1503 748 1526 745 1542

C743 1557 740 1565 736 1569

C732 1572 732 1573 735 1576

C737 1578 737 1578 746 1576

C757 1574 775 1574 786 1576

C789 1577 794 1577 795 1577

L798 1578

L799 1575

C800 1573 800 1572 797 1568

C790 1560 787 1549 787 1534

C788 1524 790 1515 794 1514

L795 1513

L799 1519

C805 1526 812 1541 814 1548

C817 1558 816 1563 811 1572

L810 1574

L812 1576

C814 1578 814 1578 822 1576

C833 1574 856 1574 866 1576

C870 1577 874 1578 874 1578

L876 1578

L877 1575

C878 1572 877 1572 872 1565

C855 1545 849 1531 846 1510

L846 1505

L840 1504

C824 1501 811 1496 806 1491

L805 1489

L808 1486

C811 1482 821 1477 827 1476

C833 1476 839 1477 842 1481

C845 1483 845 1484 845 1488

C844 1491 844 1493 844 1495

L843 1497

L846 1498

C848 1499 852 1499 856 1499

C867 1499 875 1492 876 1481

L876 1475

L877 1476

C880 1477 886 1494 898 1533

C902 1546 905 1558 905 1559

L906 1562

L899 1566

C878 1576 870 1597 881 1610

C887 1616 892 1618 905 1618

C909 1618 915 1618 919 1617

Z

M704 1576

C720 1572 728 1566 732 1557

C735 1551 735 1542 732 1536

C728 1526 718 1520 708 1520

C702 1520 696 1521 691 1524

L688 1526

L692 1533

C695 1539 695 1540 695 1546

C695 1557 691 1564 682 1567

C674 1569 664 1567 661 1562

C658 1558 655 1546 653 1533

C650 1507 655 1474 663 1468

C666 1466 670 1465 675 1467

C677 1468 679 1470 681 1475

C687 1485 693 1493 698 1496

C708 1501 719 1497 724 1489

C727 1483 730 1472 730 1465

L730 1460

L728 1461

C727 1461 722 1461 717 1462

C710 1462 706 1462 693 1458

C678 1455 677 1455 665 1455

C640 1456 625 1465 614 1484

C604 1503 603 1526 612 1545

C616 1554 627 1564 638 1569

C642 1572 648 1574 650 1575

C664 1579 690 1580 704 1576

Z

M1559 1576

C1585 1569 1603 1545 1603 1518

C1603 1488 1587 1466 1557 1457

C1551 1455 1547 1455 1537 1455

C1525 1455 1523 1455 1516 1457

C1505 1461 1499 1465 1491 1473

C1485 1479 1482 1482 1478 1490

C1474 1500 1474 1500 1473 1512

C1473 1534 1477 1545 1491 1559

C1503 1571 1513 1575 1533 1578

C1538 1579 1553 1578 1559 1576

Z

M473 1575

L474 1572

L472 1569

C463 1559 462 1552 461 1498

C461 1460 461 1453 462 1445

C464 1435 468 1426 472 1423

C475 1420 475 1419 472 1416

L470 1413

L466 1415

C462 1416 458 1416 443 1417

C425 1417 423 1417 417 1415

L411 1413

L409 1415

C407 1418 407 1421 410 1425

C417 1434 420 1445 421 1479

C423 1531 420 1559 410 1568

C407 1571 407 1572 410 1575

C412 1577 412 1577 419 1575

C429 1572 453 1573 462 1576

C469 1578 471 1578 473 1575

Z

M546 1577

C552 1576 562 1574 568 1574

C580 1572 588 1573 596 1576

L600 1578

L602 1576

C604 1573 604 1570 602 1567

C596 1559 593 1539 593 1515

C593 1488 596 1472 602 1464

C605 1460 605 1459 604 1457

L603 1455

L601 1455

C585 1459 583 1459 569 1459

C560 1458 553 1458 550 1457

C546 1456 544 1455 543 1456

C541 1458 541 1461 545 1467

C546 1470 549 1476 551 1481

C553 1489 553 1490 553 1515

C553 1541 553 1548 548 1557

C544 1564 536 1569 530 1567

C524 1565 520 1560 519 1552

C519 1547 519 1546 522 1540

C536 1515 540 1503 540 1488

C540 1479 539 1477 537 1472

C533 1465 527 1459 520 1457

C515 1456 513 1456 504 1457

C490 1458 486 1458 481 1457

C479 1456 477 1455 477 1455

L476 1455

L476 1461

C476 1466 477 1469 479 1474

C485 1488 496 1489 504 1477

C510 1468 515 1466 519 1471

C521 1474 520 1478 516 1483

C515 1485 507 1492 499 1499

C483 1512 479 1517 476 1526

C469 1549 483 1571 506 1577

C514 1578 532 1578 546 1577

Z

M1111 1575

C1112 1572 1112 1570 1108 1567

C1105 1564 1100 1552 1099 1544

C1097 1530 1098 1489 1101 1479

C1105 1464 1123 1459 1129 1471

C1132 1479 1132 1481 1121 1511

C1116 1524 1115 1532 1115 1542

C1116 1554 1119 1561 1126 1569

C1135 1577 1140 1578 1156 1578

C1164 1577 1170 1577 1172 1576

L1176 1574

L1176 1573

C1176 1573 1174 1571 1171 1570

C1167 1567 1162 1560 1160 1554

C1158 1548 1158 1538 1160 1532

C1161 1530 1163 1524 1166 1519

C1175 1505 1177 1493 1174 1481

C1171 1474 1171 1472 1176 1469

C1185 1464 1195 1466 1199 1473

C1201 1480 1201 1483 1193 1494

C1179 1516 1174 1527 1174 1540

C1174 1549 1178 1557 1186 1564

C1193 1571 1200 1575 1211 1577

C1218 1578 1219 1578 1226 1577

C1235 1575 1241 1571 1244 1565

C1249 1553 1243 1540 1231 1539

C1226 1539 1218 1541 1216 1543

L1216 1544

L1218 1546

C1220 1549 1222 1555 1221 1558

C1220 1562 1216 1565 1213 1565

C1208 1565 1206 1562 1205 1556

C1204 1547 1206 1544 1216 1535

C1237 1516 1241 1511 1243 1500

C1245 1489 1241 1476 1234 1468

C1226 1460 1206 1453 1193 1454

C1183 1455 1174 1457 1167 1461

C1161 1464 1161 1464 1157 1462

C1150 1458 1139 1455 1130 1454

C1121 1454 1111 1455 1088 1459

C1073 1462 1064 1462 1057 1459

C1054 1458 1051 1457 1050 1457

C1050 1457 1049 1459 1048 1461

C1046 1464 1046 1464 1049 1471

C1051 1475 1053 1480 1054 1483

C1059 1497 1060 1519 1057 1541

C1056 1553 1054 1559 1049 1565

C1046 1569 1045 1571 1047 1575

L1048 1577

L1050 1577

C1052 1576 1055 1575 1057 1575

C1064 1572 1094 1573 1102 1576

C1105 1577 1108 1578 1108 1578

L1109 1578

L1111 1575

Z

M1257 1575

C1264 1572 1274 1572 1294 1576

C1310 1578 1310 1578 1316 1576

C1324 1573 1348 1573 1360 1576

C1367 1578 1368 1578 1370 1576

C1373 1574 1373 1573 1369 1567

C1365 1562 1362 1556 1360 1549

C1358 1540 1357 1518 1357 1504

C1358 1481 1361 1471 1367 1466

C1370 1463 1371 1463 1374 1463

C1376 1464 1379 1465 1380 1466

C1382 1469 1383 1470 1383 1475

C1383 1481 1382 1482 1379 1486

C1371 1499 1369 1507 1373 1517

C1376 1522 1380 1526 1385 1528

C1389 1530 1397 1530 1399 1529

L1400 1528

L1399 1525

C1398 1520 1399 1516 1405 1509

C1412 1501 1414 1496 1414 1487

C1414 1480 1414 1478 1412 1474

C1409 1468 1403 1462 1395 1458

C1390 1456 1388 1455 1377 1455

C1369 1455 1362 1455 1352 1457

C1335 1460 1328 1460 1317 1457

C1308 1455 1308 1455 1300 1457

C1294 1459 1290 1459 1278 1459

C1265 1459 1261 1459 1255 1457

C1250 1456 1247 1455 1247 1455

C1246 1455 1245 1456 1245 1457

L1243 1460

L1247 1465

C1252 1471 1252 1473 1255 1488

C1258 1499 1258 1504 1258 1517

C1258 1544 1255 1559 1249 1567

C1245 1571 1244 1572 1247 1576

L1248 1578

L1250 1577

C1251 1577 1254 1576 1257 1575

Z

M1473 1575

C1474 1572 1474 1572 1471 1567

C1466 1561 1465 1559 1463 1546

C1462 1537 1462 1530 1462 1493

C1462 1449 1462 1446 1466 1434

C1467 1432 1469 1427 1471 1425

C1472 1422 1474 1420 1474 1419

C1474 1419 1473 1417 1472 1416

L1470 1413

L1466 1415

C1463 1416 1457 1416 1442 1417

C1425 1417 1423 1417 1417 1415

L1411 1413

L1411 1413

C1410 1413 1409 1415 1409 1417

C1407 1420 1407 1420 1410 1425

C1412 1428 1415 1431 1416 1433

C1420 1445 1422 1472 1422 1512

C1421 1535 1421 1541 1419 1549

C1417 1559 1415 1563 1411 1568

L1408 1571

L1410 1574

C1412 1577 1412 1577 1421 1574

C1430 1572 1452 1573 1462 1576

C1470 1578 1471 1578 1473 1575

Z

M1283 1452

C1294 1449 1301 1439 1300 1428

C1299 1421 1296 1415 1291 1411

C1286 1407 1281 1405 1274 1405

C1267 1405 1261 1408 1256 1414

C1249 1421 1248 1430 1253 1440

C1260 1452 1271 1457 1283 1452

Z

M720 1384

C755 1380 790 1367 819 1348

C835 1337 840 1333 859 1315

C875 1299 891 1286 908 1273

C922 1264 946 1249 948 1249

L949 1249

L949 1265

C948 1288 944 1316 940 1337

C939 1343 938 1347 938 1348

C939 1348 942 1347 947 1346

C964 1340 971 1339 995 1338

C1021 1338 1033 1339 1052 1345

C1057 1347 1062 1348 1063 1348

C1063 1347 1062 1341 1061 1334

C1056 1310 1052 1275 1052 1258

L1052 1249

L1054 1249

C1056 1249 1063 1254 1080 1264

C1106 1282 1121 1294 1143 1315

C1163 1335 1173 1343 1191 1354

C1215 1368 1247 1380 1275 1384

C1289 1386 1318 1386 1334 1385

C1384 1379 1431 1357 1466 1322

L1477 1311

L1475 1308

C1473 1304 1411 1197 1317 1034

C1284 977 1257 930 1256 929

C1255 927 1254 927 1244 930

C1229 934 1208 943 1195 951

C1177 961 1161 974 1141 993

C1118 1015 1087 1038 1064 1051

L1059 1054

L1058 1052

C1057 1051 1061 1036 1069 1018

C1083 985 1104 949 1127 918

C1137 905 1144 897 1161 880

C1174 866 1187 850 1194 837

C1199 829 1199 829 1188 809

C1174 786 1168 776 1072 609

L1001 485

L1000 485

C999 486 976 526 837 767

C818 800 802 827 802 828

C802 830 817 853 824 862

C828 866 836 875 843 882

C857 897 863 904 874 918

C902 955 929 1005 941 1042

C943 1047 944 1051 944 1052

L944 1053

L942 1053

C941 1053 934 1049 927 1045

C900 1028 881 1013 862 994

C838 971 822 959 799 947

C782 937 746 925 744 928

C744 928 726 958 705 995

C684 1032 655 1082 641 1106

C627 1130 595 1186 570 1230

C545 1273 524 1309 524 1310

C524 1311 529 1316 534 1322

C571 1357 616 1378 666 1385

C681 1386 705 1386 720 1384

Z

M1535 1567

C1523 1564 1518 1545 1519 1506

C1520 1479 1522 1471 1529 1466

C1533 1463 1539 1463 1545 1466

C1551 1469 1553 1475 1556 1491

C1558 1506 1557 1544 1555 1552

C1551 1563 1543 1569 1535 1567

Z

M1306 1564

C1298 1556 1296 1544 1296 1511

C1297 1485 1298 1479 1304 1470

L1307 1465

L1309 1465

C1311 1466 1314 1472 1317 1480

C1319 1488 1320 1538 1318 1549

C1316 1556 1311 1566 1309 1567

C1309 1567 1307 1566 1306 1564

Z

"/>

<path fill="#807e83" stroke="none" d="
M0 1000

L0 0

L1000 0

L2000 0

L2000 1000

L2000 2000

L1000 2000

L0 2000

L0 1000

Z

M915 1618

C919 1617 929 1616 935 1614

C952 1610 964 1609 971 1612

C974 1613 978 1615 979 1616

C980 1617 981 1618 982 1618

L983 1618

L983 1615

C984 1606 981 1595 978 1588

C974 1580 963 1574 952 1575

C943 1576 937 1580 922 1592

C914 1598 906 1603 904 1604

C899 1606 894 1605 891 1601

C889 1598 888 1595 891 1590

C894 1584 901 1580 923 1574

C958 1563 977 1549 989 1524

C994 1514 995 1506 995 1492

C996 1477 994 1472 988 1464

C981 1456 975 1453 965 1453

C957 1453 952 1455 948 1458

C944 1462 943 1466 943 1476

C943 1483 943 1485 945 1489

C947 1494 953 1498 955 1498

L957 1497

L957 1496

C957 1493 961 1491 964 1491

C969 1491 972 1492 974 1497

C975 1501 975 1503 974 1508

C970 1529 958 1545 946 1547

L942 1547

L936 1527

C926 1498 925 1491 925 1479

C925 1471 926 1470 929 1465

L932 1461

L929 1457

C928 1456 927 1454 927 1454

C926 1454 923 1455 919 1456

C910 1458 889 1458 880 1456

C876 1455 872 1454 872 1454

C871 1454 870 1456 869 1459

L867 1463

L865 1462

C855 1458 834 1457 824 1460

C814 1463 799 1475 791 1485

L789 1488

L788 1487

C787 1487 787 1479 787 1463

C788 1438 788 1435 794 1425

C799 1418 799 1417 796 1415

C794 1413 794 1413 785 1414

C773 1416 752 1416 744 1415

C735 1413 735 1413 733 1416

L731 1419

L734 1424

C739 1430 741 1435 743 1447

C746 1462 747 1483 747 1510

C746 1545 743 1560 735 1569

L732 1572

L733 1574

C735 1578 737 1579 744 1577

C753 1575 781 1575 790 1577

C794 1578 797 1579 798 1579

C798 1579 799 1578 800 1576

C801 1573 801 1573 800 1571

C799 1570 797 1567 795 1565

C790 1558 788 1548 788 1536

C788 1527 788 1525 790 1520

C792 1517 793 1514 794 1514

C795 1514 802 1524 807 1532

C816 1550 818 1561 811 1570

L809 1573

L811 1576

C813 1579 814 1579 825 1577

C838 1574 856 1575 874 1579

L876 1579

L877 1577

C877 1575 878 1573 878 1573

C878 1572 875 1568 871 1563

C863 1553 856 1542 852 1533

C850 1527 847 1514 847 1508

L847 1505

L845 1505

C844 1504 839 1503 833 1502

C821 1499 811 1494 807 1491

L806 1489

L810 1485

C818 1478 831 1475 839 1479

C844 1481 847 1488 844 1493

C843 1494 842 1495 842 1496

L842 1497

L846 1498

C852 1501 860 1500 866 1497

C872 1494 875 1490 877 1482

L878 1477

L880 1482

C885 1492 904 1552 905 1559

L906 1561

L899 1565

C889 1570 883 1576 879 1583

C876 1589 876 1591 876 1597

C877 1611 886 1618 905 1619

C906 1619 910 1619 915 1618

Z

M703 1577

C714 1574 723 1570 727 1565

C736 1555 737 1543 730 1532

C724 1522 713 1518 702 1520

C696 1521 688 1525 688 1526

C688 1526 690 1530 692 1533

C694 1539 695 1541 695 1546

C695 1560 688 1567 675 1567

C665 1567 660 1563 657 1552

C650 1522 653 1478 663 1469

C666 1466 672 1466 676 1468

C677 1469 680 1472 681 1476

C686 1485 692 1493 697 1496

C705 1500 716 1499 722 1493

C726 1488 731 1473 731 1463

L731 1459

L729 1459

C718 1463 712 1463 687 1457

C673 1454 665 1453 652 1456

C639 1459 631 1463 623 1471

C601 1493 599 1534 619 1556

C630 1568 646 1576 670 1579

C676 1580 695 1579 703 1577

Z

M472 1577

C475 1573 474 1571 471 1567

C467 1562 465 1558 463 1545

C462 1535 462 1527 462 1493

C462 1451 462 1445 466 1433

C467 1430 470 1426 472 1424

L475 1420

L473 1417

C471 1413 470 1413 464 1415

C459 1416 455 1416 440 1416

C424 1416 421 1416 416 1414

L410 1412

L408 1416

C406 1420 406 1420 410 1425

C418 1437 420 1448 421 1496

C421 1529 421 1532 419 1543

C417 1557 414 1563 410 1568

L407 1571

L408 1573

C410 1577 412 1577 418 1576

C427 1573 455 1574 463 1577

C470 1579 471 1579 472 1577

Z

M548 1577

C551 1576 559 1575 565 1575

C579 1572 584 1573 593 1576

L600 1578

L603 1575

C606 1572 606 1572 603 1567

C596 1557 594 1543 594 1514

C594 1484 596 1471 603 1463

C606 1459 606 1459 604 1456

L602 1454

L595 1456

C586 1459 561 1459 552 1457

C544 1455 544 1455 542 1458

L540 1460

L544 1466

C546 1469 548 1475 550 1480

C552 1487 552 1489 553 1512

C553 1531 553 1538 552 1544

C548 1559 542 1567 533 1567

C525 1567 520 1560 520 1550

C520 1546 521 1543 526 1534

C537 1515 542 1501 541 1486

C540 1473 534 1463 524 1458

C519 1456 519 1456 507 1457

C489 1458 484 1458 480 1456

L477 1454

L476 1455

C476 1455 476 1458 476 1462

C476 1469 478 1476 483 1481

C489 1488 498 1486 505 1477

C507 1473 510 1470 512 1469

L515 1468

L517 1470

C520 1472 520 1478 516 1483

C514 1485 508 1491 501 1496

C485 1509 484 1511 480 1517

C475 1523 472 1535 473 1543

C474 1551 480 1561 487 1567

C494 1574 500 1577 511 1578

C518 1579 536 1578 548 1577

Z

M1163 1578

C1170 1577 1177 1575 1177 1573

C1177 1573 1175 1571 1173 1570

C1161 1563 1156 1548 1160 1533

C1161 1530 1164 1524 1167 1520

C1174 1508 1175 1503 1175 1493

C1175 1487 1175 1483 1174 1479

C1172 1474 1172 1474 1173 1472

C1174 1471 1177 1469 1180 1468

C1187 1465 1191 1466 1196 1470

C1199 1473 1199 1474 1199 1479

C1199 1484 1198 1485 1192 1495

C1169 1528 1167 1548 1185 1564

C1197 1576 1215 1581 1230 1576

C1237 1574 1242 1571 1244 1566

C1248 1557 1248 1551 1242 1544

C1235 1538 1228 1536 1219 1541

C1214 1543 1214 1544 1217 1546

C1220 1549 1221 1554 1220 1558

C1218 1565 1212 1567 1208 1563

C1203 1557 1205 1547 1211 1540

C1213 1538 1219 1533 1224 1529

C1240 1515 1245 1506 1244 1491

C1243 1473 1233 1462 1212 1456

C1198 1452 1182 1454 1168 1460

C1161 1463 1161 1463 1155 1460

C1139 1452 1127 1452 1094 1458

C1069 1462 1063 1462 1055 1458

C1053 1457 1050 1456 1050 1457

C1049 1457 1048 1459 1047 1461

C1045 1464 1045 1464 1050 1473

C1056 1485 1058 1498 1058 1518

C1058 1535 1056 1550 1053 1557

C1052 1560 1050 1563 1048 1565

C1045 1569 1045 1569 1046 1573

C1047 1575 1048 1577 1048 1578

C1049 1578 1051 1577 1054 1576

C1059 1574 1061 1574 1077 1574

C1092 1574 1094 1574 1101 1576

L1109 1578

L1110 1577

C1112 1573 1112 1571 1109 1567

C1101 1556 1099 1549 1099 1521

C1099 1498 1100 1484 1102 1477

C1103 1473 1107 1468 1111 1466

C1115 1464 1122 1465 1125 1467

C1132 1472 1132 1482 1124 1502

C1115 1522 1113 1534 1115 1547

C1118 1563 1127 1574 1140 1578

C1147 1579 1152 1579 1163 1578

Z

M1314 1577

C1319 1575 1321 1575 1336 1575

C1348 1575 1353 1575 1360 1576

C1368 1578 1368 1578 1371 1576

L1374 1573

L1371 1568

C1366 1561 1362 1554 1360 1546

C1358 1536 1358 1492 1360 1481

C1363 1469 1367 1464 1373 1464

C1375 1464 1377 1465 1379 1467

C1382 1469 1382 1471 1382 1475

C1382 1480 1381 1482 1378 1487

C1372 1496 1370 1502 1370 1508

C1371 1513 1374 1520 1377 1524

C1382 1529 1392 1532 1397 1530

L1401 1529

L1401 1527

C1401 1527 1401 1526 1400 1526

C1398 1525 1399 1519 1401 1516

C1402 1514 1405 1511 1407 1507

C1414 1500 1415 1494 1415 1484

C1414 1474 1411 1469 1404 1463

C1391 1453 1381 1452 1351 1456

C1331 1459 1331 1459 1314 1456

C1308 1454 1307 1454 1301 1456

C1289 1460 1266 1460 1253 1456

L1247 1454

L1245 1456

C1242 1459 1243 1461 1246 1464

C1250 1470 1252 1475 1255 1489

C1259 1506 1259 1521 1256 1540

C1255 1554 1252 1562 1247 1567

L1244 1571

L1245 1575

C1248 1578 1249 1579 1254 1576

C1260 1574 1268 1573 1279 1574

C1287 1575 1308 1578 1309 1579

C1309 1579 1311 1578 1314 1577

Z

M1473 1576

L1475 1573

L1474 1572

C1471 1567 1467 1560 1466 1557

C1463 1544 1462 1531 1462 1492

C1462 1456 1462 1452 1464 1443

C1466 1434 1468 1428 1472 1423

C1476 1420 1476 1419 1473 1416

L1470 1413

L1464 1415

C1459 1416 1455 1416 1440 1416

C1423 1416 1421 1416 1416 1414

L1411 1412

L1409 1415

C1406 1420 1406 1421 1410 1425

C1419 1436 1421 1451 1421 1502

C1421 1530 1421 1536 1420 1543

C1417 1557 1415 1562 1411 1566

C1407 1572 1407 1572 1410 1575

L1412 1577

L1418 1576

C1428 1573 1455 1574 1464 1577

C1467 1578 1470 1579 1470 1579

C1471 1579 1472 1578 1473 1576

Z

M1563 1576

C1581 1570 1594 1555 1601 1536

C1606 1521 1604 1502 1597 1488

C1587 1469 1568 1457 1545 1454

C1518 1451 1495 1462 1481 1483

C1475 1494 1473 1501 1472 1512

C1471 1544 1491 1571 1524 1578

C1534 1580 1555 1579 1563 1576

Z

M1286 1452

C1295 1448 1300 1440 1300 1430

C1300 1406 1271 1395 1255 1413

C1250 1420 1248 1428 1252 1437

C1256 1452 1271 1458 1286 1452

Z

M711 1386

C759 1382 803 1364 840 1334

C843 1331 852 1322 861 1314

C883 1292 904 1276 933 1258

L947 1249

L948 1249

C949 1250 948 1270 946 1288

C945 1307 944 1311 940 1332

C939 1340 938 1347 938 1348

C939 1348 944 1347 950 1345

C969 1340 977 1339 1000 1339

C1023 1338 1032 1340 1052 1346

C1058 1348 1063 1349 1064 1349

C1064 1349 1063 1343 1062 1336

C1059 1322 1055 1298 1054 1283

C1053 1269 1053 1250 1053 1249

L1054 1249

L1062 1254

C1075 1262 1101 1280 1113 1289

C1119 1294 1131 1304 1140 1313

C1158 1331 1164 1336 1176 1345

C1205 1365 1238 1379 1273 1384

C1292 1387 1323 1387 1342 1384

C1372 1380 1403 1368 1428 1353

C1445 1342 1477 1315 1477 1311

C1477 1311 1469 1295 1458 1277

C1448 1259 1435 1237 1430 1228

C1396 1170 1316 1031 1282 971

C1252 921 1257 925 1234 932

C1210 941 1184 955 1165 970

C1161 974 1151 982 1143 990

C1122 1010 1101 1027 1073 1045

L1060 1053

L1059 1052

C1056 1050 1070 1013 1083 989

C1104 949 1130 913 1157 884

C1165 876 1174 866 1178 861

C1185 852 1198 833 1199 830

C1199 829 1196 823 1188 808

C1181 797 1162 764 1144 733

C1088 635 1025 526 1013 505

C1006 494 1000 485 1000 485

C999 485 981 515 960 552

C939 588 894 665 862 722

C829 780 802 827 802 828

C802 830 811 845 820 857

C824 863 834 874 842 882

C858 899 864 906 874 920

C903 957 926 1001 939 1038

C941 1045 943 1051 943 1052

L942 1053

L938 1051

C903 1030 885 1016 861 993

C838 970 820 957 798 946

C780 936 747 925 744 927

C744 927 735 941 726 958

C716 974 698 1006 685 1029

C596 1183 524 1308 523 1309

C522 1313 545 1334 566 1348

C609 1377 660 1390 711 1386

Z

M1304 1562

C1302 1559 1300 1555 1299 1553

C1296 1543 1295 1500 1299 1485

C1300 1478 1304 1469 1307 1466

L1309 1465

L1311 1468

C1315 1474 1317 1482 1318 1497

C1320 1515 1319 1543 1317 1552

C1315 1559 1311 1566 1309 1566

C1308 1566 1306 1564 1304 1562

Z

M1532 1565

C1527 1563 1523 1555 1521 1543

C1519 1530 1519 1494 1521 1483

C1523 1474 1525 1470 1529 1467

C1533 1463 1538 1463 1544 1466

C1554 1471 1556 1485 1556 1524

C1555 1548 1555 1550 1553 1554

C1548 1566 1540 1570 1532 1565

Z

"/>

<path fill="#a6a5a8" stroke="none" d="
M0 1000

L0 0

L1000 0

L2000 0

L2000 1000

L2000 2000

L1000 2000

L0 2000

L0 1000

Z

M921 1618

C925 1617 933 1615 939 1614

C959 1609 968 1609 977 1616

C980 1618 983 1619 983 1618

C985 1617 984 1607 982 1599

C978 1584 974 1579 962 1576

C950 1572 940 1576 925 1588

C909 1602 905 1604 900 1604

C893 1604 890 1601 890 1596

C890 1586 898 1581 923 1574

C957 1565 978 1549 989 1524

C994 1514 996 1503 996 1488

C995 1474 994 1470 986 1462

C980 1456 976 1453 968 1452

C957 1451 948 1455 944 1463

C942 1467 942 1469 942 1476

C942 1486 945 1493 952 1497

L956 1499

L957 1497

C959 1492 965 1490 969 1492

C972 1494 974 1498 974 1503

C974 1513 965 1534 958 1540

C954 1544 946 1548 944 1547

C942 1546 935 1525 930 1506

C924 1486 924 1473 929 1465

C933 1461 933 1460 929 1457

C926 1454 926 1454 917 1456

C907 1458 886 1457 877 1455

L872 1453

L870 1456

C869 1457 868 1459 868 1459

C868 1459 868 1460 867 1461

L866 1462

L859 1460

C853 1459 847 1458 840 1458

C822 1458 812 1463 797 1479

L789 1487

L788 1487

C788 1487 788 1479 787 1471

C786 1446 789 1433 797 1422

L799 1418

L797 1415

L795 1412

L792 1412

C778 1416 752 1417 742 1414

L736 1412

L733 1415

C730 1418 730 1419 734 1425

C739 1431 741 1436 743 1450

C747 1476 748 1518 744 1542

C742 1557 740 1563 735 1568

C734 1570 732 1572 732 1573

C732 1573 733 1575 734 1576

C737 1579 737 1579 746 1578

C757 1576 776 1575 786 1577

C789 1578 793 1578 795 1579

L799 1579

L800 1576

C801 1574 801 1572 800 1572

C790 1558 789 1553 788 1538

C788 1528 788 1526 790 1521

C791 1518 793 1515 794 1515

L796 1515

L801 1523

C813 1541 817 1556 814 1565

C813 1567 812 1569 811 1570

C809 1572 809 1574 811 1577

C813 1579 815 1580 823 1577

C832 1575 857 1575 866 1577

C870 1578 874 1579 875 1579

L876 1579

L878 1575

C879 1572 879 1572 873 1564

C857 1544 850 1531 848 1514

C847 1509 847 1505 846 1505

C846 1504 840 1503 834 1501

C828 1500 821 1498 819 1497

C813 1495 807 1491 807 1489

C807 1487 813 1483 818 1480

C831 1474 844 1478 844 1488

C844 1490 843 1492 842 1493

L841 1496

L844 1498

C851 1502 863 1501 869 1496

C874 1492 877 1486 877 1482

L877 1479

L878 1480

C880 1482 885 1496 891 1515

C901 1545 905 1559 905 1560

C905 1561 902 1563 897 1565

C883 1573 876 1583 876 1596

C875 1614 893 1623 921 1618

Z

M705 1577

C716 1574 724 1570 728 1565

C736 1555 737 1545 732 1534

C727 1523 717 1518 705 1519

C694 1520 684 1526 688 1529

C690 1530 694 1539 695 1544

C696 1557 687 1567 675 1567

C670 1567 663 1563 661 1560

C657 1554 653 1529 653 1514

C653 1496 658 1475 663 1469

C665 1467 666 1467 670 1467

C673 1467 676 1468 676 1469

C677 1470 680 1474 682 1478

C690 1493 697 1499 708 1499

C714 1499 720 1496 724 1491

C728 1486 731 1473 731 1465

L731 1458

L731 1458

C730 1458 729 1459 727 1460

C720 1462 709 1461 693 1457

C681 1455 676 1454 669 1454

C641 1454 623 1465 612 1486

C606 1498 605 1505 605 1518

C605 1545 618 1563 645 1574

C657 1579 666 1580 683 1580

C693 1579 699 1579 705 1577

Z

M1559 1578

C1569 1575 1577 1570 1586 1562

C1598 1549 1604 1535 1604 1518

C1604 1499 1598 1485 1586 1472

C1573 1460 1560 1455 1541 1453

C1510 1451 1484 1469 1474 1498

C1470 1510 1472 1531 1477 1542

C1486 1559 1500 1572 1517 1576

C1530 1580 1548 1581 1559 1578

Z

M473 1576

L475 1572

L472 1568

C464 1557 463 1552 462 1498

C462 1444 463 1436 472 1424

L475 1420

L473 1416

C471 1412 470 1412 462 1414

C454 1417 424 1417 417 1414

C414 1413 411 1412 410 1412

L409 1412

L408 1416

C406 1420 406 1421 410 1427

C417 1437 420 1452 421 1496

C421 1526 421 1528 419 1540

C416 1556 414 1562 410 1567

C406 1571 406 1572 409 1575

L412 1578

L417 1576

C427 1573 453 1573 464 1578

C470 1580 471 1579 473 1576

Z

M558 1576

C579 1573 586 1573 599 1578

L601 1579

L603 1576

C606 1572 606 1572 602 1564

C600 1560 597 1553 596 1549

C593 1532 594 1491 597 1476

C598 1472 601 1466 605 1461

C606 1459 606 1459 605 1456

L604 1454

L601 1454

C599 1455 594 1456 590 1456

C581 1459 557 1458 550 1455

C545 1454 545 1454 543 1456

C540 1458 540 1460 543 1466

C547 1473 551 1483 552 1492

C553 1499 553 1530 552 1539

C549 1557 543 1566 533 1566

C525 1566 521 1560 521 1551

C521 1545 521 1544 526 1535

C537 1517 541 1504 541 1489

C541 1477 539 1470 532 1463

C524 1456 518 1454 504 1456

C490 1457 486 1457 481 1455

C479 1455 477 1454 476 1454

L475 1455

L475 1462

C476 1475 483 1486 491 1486

C496 1486 500 1483 505 1477

C511 1469 516 1467 518 1471

C521 1477 516 1484 499 1498

C478 1515 474 1521 474 1538

C474 1547 474 1548 477 1554

C480 1562 488 1571 495 1574

C504 1578 511 1579 529 1579

C537 1578 550 1577 558 1576

Z

M1057 1576

C1064 1573 1090 1573 1100 1576

C1103 1577 1107 1578 1108 1578

L1109 1579

L1111 1575

L1113 1571

L1110 1567

C1101 1557 1098 1545 1099 1513

C1100 1480 1102 1472 1111 1467

C1119 1463 1126 1465 1129 1473

C1131 1478 1130 1482 1126 1493

C1114 1527 1115 1524 1115 1538

C1115 1549 1115 1551 1117 1556

C1120 1565 1126 1572 1133 1575

C1139 1578 1140 1578 1154 1578

C1167 1578 1169 1578 1173 1576

C1176 1575 1178 1574 1178 1573

L1178 1572

L1176 1571

C1172 1570 1165 1563 1163 1559

C1161 1555 1161 1553 1161 1543

C1161 1532 1161 1532 1165 1524

C1174 1508 1175 1505 1176 1496

C1176 1490 1176 1486 1175 1481

C1174 1478 1173 1474 1173 1474

C1173 1473 1175 1471 1178 1470

C1186 1465 1194 1467 1197 1473

C1200 1480 1200 1483 1192 1495

C1177 1517 1173 1528 1173 1541

C1174 1551 1176 1557 1184 1564

C1199 1579 1223 1583 1238 1573

C1254 1563 1247 1538 1230 1538

C1225 1538 1217 1541 1216 1543

C1215 1543 1216 1546 1217 1548

C1223 1555 1219 1564 1212 1564

C1207 1563 1206 1560 1206 1552

C1207 1545 1209 1542 1222 1531

C1233 1522 1238 1516 1242 1508

C1244 1503 1244 1501 1244 1494

C1244 1477 1238 1467 1225 1461

C1216 1456 1204 1453 1197 1453

C1188 1453 1176 1456 1168 1459

C1161 1463 1161 1463 1157 1461

C1154 1459 1149 1457 1146 1456

C1135 1452 1116 1453 1097 1456

C1090 1458 1079 1459 1074 1460

C1065 1460 1063 1460 1057 1458

C1054 1457 1051 1456 1050 1456

C1049 1456 1048 1458 1047 1460

C1045 1464 1045 1464 1049 1472

C1055 1485 1058 1498 1058 1518

C1058 1534 1056 1552 1052 1559

C1051 1560 1049 1563 1048 1565

C1045 1569 1044 1570 1047 1575

L1048 1579

L1050 1578

C1051 1578 1054 1577 1057 1576

Z

M1257 1576

C1266 1573 1276 1574 1297 1577

C1310 1579 1310 1579 1316 1577

C1325 1574 1348 1574 1360 1577

C1368 1579 1368 1579 1371 1576

C1373 1575 1374 1573 1374 1573

C1374 1573 1372 1569 1370 1566

C1361 1552 1359 1542 1359 1513

C1359 1479 1362 1466 1372 1464

C1375 1464 1375 1464 1378 1467

C1384 1472 1383 1477 1378 1486

C1372 1496 1370 1500 1370 1506

C1370 1514 1375 1523 1381 1527

C1387 1531 1396 1532 1399 1530

L1402 1528

L1400 1525

C1398 1521 1400 1517 1406 1510

C1413 1501 1415 1496 1415 1487

C1416 1477 1413 1472 1406 1465

C1394 1453 1380 1451 1348 1457

C1335 1459 1329 1458 1317 1456

C1308 1454 1308 1454 1300 1456

C1294 1458 1290 1458 1278 1458

C1266 1458 1261 1458 1257 1457

C1253 1456 1249 1455 1248 1454

L1246 1454

L1244 1457

L1242 1460

L1245 1465

C1251 1472 1252 1475 1255 1489

C1257 1502 1257 1503 1257 1523

C1256 1551 1254 1559 1246 1568

L1243 1571

L1244 1573

C1245 1575 1246 1576 1247 1577

L1248 1579

L1249 1579

C1250 1578 1254 1577 1257 1576

Z

M1473 1576

C1476 1572 1475 1572 1472 1566

C1468 1561 1466 1556 1464 1543

C1462 1531 1462 1453 1464 1445

C1466 1435 1469 1428 1473 1424

L1476 1420

L1474 1417

C1471 1412 1470 1412 1466 1414

C1462 1415 1458 1415 1443 1416

C1427 1416 1424 1416 1418 1414

C1414 1413 1411 1412 1411 1412

C1409 1412 1406 1420 1407 1421

C1407 1422 1409 1424 1411 1427

C1418 1436 1420 1450 1421 1497

C1421 1533 1421 1533 1419 1546

C1416 1558 1413 1565 1409 1568

C1406 1571 1407 1572 1409 1575

L1412 1578

L1417 1577

C1424 1574 1445 1573 1456 1575

C1461 1576 1465 1578 1466 1578

C1469 1580 1472 1579 1473 1576

Z

M1284 1453

C1311 1443 1304 1404 1275 1404

C1257 1404 1245 1420 1251 1436

C1256 1452 1270 1459 1284 1453

Z

M722 1385

C758 1381 790 1369 821 1348

C835 1338 844 1331 864 1312

C883 1293 897 1282 924 1264

C934 1258 946 1250 947 1250

L948 1250

L948 1258

C948 1275 943 1321 938 1342

C937 1345 937 1348 937 1349

C938 1349 942 1348 946 1347

C973 1339 998 1336 1022 1340

C1037 1342 1052 1345 1062 1350

L1064 1350

L1064 1348

C1064 1346 1063 1342 1062 1339

C1059 1322 1053 1273 1053 1257

L1053 1250

L1054 1250

C1055 1250 1077 1264 1089 1272

C1107 1285 1121 1296 1137 1311

C1157 1331 1163 1336 1176 1345

C1223 1378 1276 1392 1332 1386

C1382 1381 1432 1358 1469 1321

L1478 1312

L1478 1310

C1477 1309 1429 1226 1363 1112

C1345 1079 1313 1025 1277 962

C1266 944 1257 928 1256 927

C1255 925 1244 928 1227 935

C1195 947 1171 962 1143 989

C1127 1005 1114 1016 1097 1028

C1086 1036 1061 1052 1060 1052

L1059 1052

L1059 1050

C1059 1049 1061 1043 1063 1037

C1074 1005 1091 973 1115 938

C1129 917 1139 904 1157 885

C1166 876 1177 864 1182 858

C1192 844 1200 830 1199 828

C1199 827 1194 819 1189 810

C1176 787 1116 683 1065 595

C1002 485 1001 484 1000 484

C999 484 990 499 979 519

C922 616 868 710 845 751

C800 828 801 827 801 829

C802 833 815 852 823 863

C827 867 837 879 846 887

C863 905 875 920 889 942

C906 967 920 992 929 1015

C935 1027 942 1047 942 1050

L942 1052

L942 1052

C941 1052 921 1040 911 1033

C892 1020 876 1007 860 991

C835 967 820 956 795 944

C784 938 764 930 752 927

C745 926 745 926 743 928

C742 929 732 946 720 967

C708 988 683 1031 664 1064

C550 1261 523 1309 523 1310

C523 1314 547 1336 563 1347

C589 1364 613 1375 646 1382

C664 1387 699 1388 722 1385

Z

M1530 1563

C1526 1559 1524 1555 1522 1547

C1519 1530 1520 1486 1524 1476

C1525 1470 1530 1465 1534 1465

C1537 1464 1543 1465 1546 1468

C1553 1473 1557 1491 1556 1525

C1555 1551 1554 1555 1548 1562

C1544 1566 1543 1566 1538 1566

C1534 1566 1533 1565 1530 1563

Z

M1305 1563

C1298 1554 1297 1543 1297 1510

C1298 1493 1298 1486 1299 1482

C1301 1476 1307 1466 1309 1466

C1310 1466 1314 1473 1316 1480

C1318 1487 1319 1536 1317 1547

C1316 1554 1312 1563 1310 1565

L1308 1566

L1305 1563

Z

"/>

<path fill="#c9c9ca" stroke="none" d="
M0 1000

L0 0

L1000 0

L2000 0

L2000 1000

L2000 2000

L1000 2000

L0 2000

L0 1000

Z

M984 1612

C984 1603 982 1593 978 1586

C975 1582 973 1580 969 1578

C963 1575 961 1575 955 1575

C944 1575 937 1578 922 1590

C906 1603 901 1606 895 1603

C889 1600 889 1596 893 1589

C896 1583 901 1581 930 1573

C941 1569 959 1560 966 1554

C979 1544 990 1528 994 1512

C996 1506 996 1502 996 1492

C996 1476 995 1471 988 1462

C981 1455 975 1452 965 1452

C955 1452 948 1455 944 1462

C942 1466 942 1467 942 1476

C942 1483 942 1485 944 1489

C946 1493 953 1499 955 1499

L957 1499

L958 1496

C961 1489 969 1490 972 1497

C974 1501 974 1502 973 1509

C971 1519 965 1532 959 1538

C955 1543 949 1546 945 1546

C943 1546 942 1544 937 1528

C928 1502 926 1491 926 1481

C926 1473 926 1472 930 1467

C931 1463 933 1460 933 1460

C933 1460 931 1458 930 1456

C926 1453 926 1453 920 1455

C911 1457 890 1457 880 1455

C876 1454 872 1453 871 1454

C870 1454 869 1456 868 1458

L866 1462

L860 1460

C857 1459 850 1458 845 1458

C825 1456 811 1462 795 1479

C792 1483 789 1486 789 1486

L788 1486

L788 1463

C789 1437 789 1434 796 1424

C800 1418 800 1417 797 1414

C795 1412 795 1412 785 1413

C773 1415 752 1415 744 1414

C735 1412 735 1412 732 1416

L730 1419

L731 1421

C738 1430 740 1435 742 1449

C747 1472 747 1518 744 1540

C741 1558 740 1562 735 1568

L731 1572

L733 1575

C734 1577 736 1579 736 1579

C737 1580 741 1579 745 1578

C754 1576 781 1576 790 1578

C798 1580 799 1580 801 1575

C802 1572 802 1572 799 1568

C792 1561 788 1548 788 1535

C788 1529 791 1519 793 1516

L795 1515

L800 1522

C808 1534 812 1543 814 1553

C815 1559 814 1565 810 1570

C808 1573 808 1575 812 1578

C814 1580 814 1580 821 1578

C830 1576 860 1576 868 1578

C876 1581 876 1581 877 1577

C880 1573 879 1571 874 1565

C858 1546 850 1529 848 1512

C848 1508 847 1505 847 1504

C846 1504 841 1503 834 1501

C821 1498 813 1495 809 1491

L807 1489

L810 1486

C816 1480 824 1478 832 1478

C838 1479 839 1479 841 1482

C844 1485 845 1489 843 1493

C842 1494 841 1495 841 1496

L841 1497

L845 1499

C850 1501 858 1502 863 1500

C870 1497 875 1492 877 1484

L878 1481

L880 1483

C883 1489 893 1521 903 1555

L905 1561

L898 1564

C885 1571 876 1582 875 1594

C874 1606 880 1614 892 1618

C901 1620 919 1619 935 1615

C956 1609 970 1610 978 1617

C980 1619 982 1620 983 1620

L984 1619

L984 1612

Z

M703 1578

C721 1573 730 1567 734 1555

C737 1548 737 1544 734 1537

C729 1523 716 1516 702 1519

C691 1521 685 1525 688 1529

C697 1542 696 1558 685 1564

C677 1568 666 1566 661 1560

C655 1550 652 1513 656 1491

C659 1471 664 1465 674 1468

C676 1469 678 1471 681 1477

C686 1487 692 1494 696 1497

C704 1501 715 1500 721 1496

C726 1491 732 1475 732 1463

L732 1458

L731 1458

C730 1458 728 1459 725 1460

C718 1462 709 1461 693 1457

C681 1454 678 1454 668 1454

C648 1454 634 1459 623 1470

C600 1493 598 1534 618 1557

C630 1570 645 1576 671 1580

C677 1581 694 1580 703 1578

Z

M473 1577

C476 1573 476 1572 472 1567

C464 1558 463 1547 462 1498

C462 1447 463 1435 473 1424

L476 1420

L474 1416

C471 1411 470 1411 464 1414

C460 1415 456 1415 441 1415

C423 1415 421 1415 416 1413

L410 1411

L409 1412

C407 1415 405 1420 406 1421

C406 1422 408 1424 410 1427

C418 1437 419 1451 419 1501

C419 1534 419 1540 418 1547

C415 1558 413 1564 409 1568

L406 1571

L408 1574

C410 1578 411 1579 419 1576

C427 1574 455 1575 463 1578

C470 1580 471 1580 473 1577

Z

M535 1579

C542 1578 554 1577 561 1576

C578 1573 584 1573 593 1577

C597 1578 600 1579 601 1579

C601 1579 603 1577 604 1575

C606 1572 606 1572 603 1566

C597 1555 596 1547 595 1520

C595 1484 597 1473 605 1463

L607 1460

L605 1456

L604 1453

L602 1453

C600 1454 597 1455 593 1455

C585 1458 555 1457 548 1455

L544 1453

L541 1457

L539 1460

L542 1466

C544 1469 547 1475 549 1480

C551 1487 552 1488 552 1515

C552 1541 551 1543 549 1550

C546 1561 540 1566 533 1566

C526 1566 521 1559 521 1550

C521 1546 522 1544 527 1535

C538 1516 543 1501 542 1486

C541 1473 536 1464 526 1458

C522 1456 521 1456 512 1456

C506 1456 497 1456 493 1456

C485 1456 483 1456 480 1455

L477 1453

L476 1454

C475 1455 475 1458 475 1462

C475 1473 482 1485 489 1486

C494 1487 500 1484 505 1477

C508 1474 511 1471 512 1470

L515 1469

L516 1470

C519 1472 518 1477 515 1482

C514 1484 507 1491 499 1497

C491 1503 483 1510 481 1512

C472 1524 470 1542 476 1554

C484 1570 496 1578 516 1579

C518 1580 520 1580 521 1580

C521 1580 528 1580 535 1579

Z

M1167 1578

C1172 1578 1178 1575 1178 1573

C1178 1573 1176 1571 1173 1570

C1165 1565 1160 1555 1160 1543

C1160 1535 1162 1529 1168 1519

C1171 1514 1174 1508 1175 1506

C1177 1499 1177 1486 1175 1479

C1174 1476 1173 1474 1174 1473

C1175 1471 1184 1467 1187 1467

C1190 1467 1195 1469 1196 1472

C1197 1474 1198 1477 1198 1479

C1198 1484 1197 1485 1191 1495

C1180 1511 1174 1524 1173 1533

C1171 1547 1174 1555 1185 1565

C1198 1577 1215 1582 1230 1577

C1234 1576 1238 1574 1239 1573

L1242 1571

L1242 1571

C1243 1571 1244 1573 1245 1575

C1246 1577 1248 1579 1249 1579

C1249 1579 1252 1578 1255 1577

C1262 1574 1275 1574 1295 1577

C1310 1580 1310 1580 1315 1578

C1322 1575 1345 1574 1355 1576

C1369 1580 1369 1580 1372 1576

C1374 1575 1375 1573 1375 1573

C1375 1573 1374 1571 1372 1568

C1368 1563 1363 1554 1361 1547

C1359 1537 1358 1500 1360 1486

C1363 1471 1366 1465 1373 1465

C1378 1465 1381 1469 1381 1475

C1381 1480 1380 1481 1377 1487

C1368 1500 1367 1508 1372 1517

C1377 1528 1389 1534 1397 1531

C1402 1530 1402 1529 1401 1525

C1399 1520 1400 1517 1406 1510

C1414 1501 1416 1495 1416 1485

C1415 1475 1413 1470 1406 1464

C1404 1462 1399 1459 1395 1457

C1390 1454 1388 1454 1379 1453

C1372 1453 1365 1453 1358 1454

C1331 1459 1333 1459 1311 1454

C1308 1454 1306 1454 1302 1455

C1288 1460 1267 1460 1253 1455

L1247 1453

L1244 1456

C1241 1459 1241 1461 1245 1464

C1249 1470 1251 1475 1254 1489

C1257 1503 1257 1504 1257 1522

C1256 1532 1255 1544 1255 1548

C1253 1556 1249 1565 1246 1567

L1245 1569

L1245 1567

C1249 1557 1248 1549 1242 1543

C1236 1536 1224 1535 1216 1541

L1214 1544

L1216 1546

C1222 1553 1220 1564 1212 1564

C1209 1564 1207 1561 1206 1556

C1205 1549 1208 1544 1218 1535

C1232 1523 1239 1516 1242 1510

C1244 1504 1245 1503 1245 1493

C1245 1484 1244 1482 1242 1478

C1239 1470 1234 1465 1226 1461

C1208 1451 1187 1450 1168 1459

C1161 1462 1161 1462 1156 1460

C1154 1458 1148 1456 1144 1455

C1133 1452 1113 1453 1094 1457

C1076 1460 1063 1460 1056 1457

C1053 1456 1050 1455 1050 1455

C1049 1455 1048 1457 1047 1460

C1044 1464 1044 1464 1049 1473

C1055 1485 1057 1497 1057 1517

C1057 1541 1055 1555 1049 1563

C1047 1565 1045 1568 1045 1568

C1044 1569 1044 1571 1045 1574

L1047 1579

L1049 1579

C1049 1579 1052 1578 1055 1577

C1059 1575 1061 1575 1077 1575

C1092 1575 1094 1575 1101 1577

L1109 1579

L1111 1577

C1113 1575 1113 1571 1112 1569

C1112 1569 1110 1566 1108 1564

C1103 1557 1101 1550 1100 1535

C1099 1521 1100 1491 1102 1482

C1104 1472 1110 1466 1118 1466

C1123 1466 1126 1467 1128 1471

C1130 1477 1129 1485 1123 1502

C1116 1517 1115 1521 1114 1531

C1112 1546 1116 1559 1124 1568

C1134 1579 1142 1581 1167 1578

Z

M1474 1576

L1476 1572

L1473 1568

C1472 1566 1470 1563 1469 1561

C1464 1552 1461 1520 1462 1480

C1463 1444 1465 1434 1473 1424

C1475 1422 1476 1420 1476 1420

C1476 1418 1471 1412 1470 1412

C1469 1412 1466 1413 1464 1414

C1460 1415 1456 1415 1441 1415

C1423 1415 1421 1415 1416 1413

C1410 1411 1409 1411 1407 1417

C1406 1421 1406 1421 1410 1427

C1418 1439 1420 1454 1420 1502

C1420 1534 1420 1536 1418 1546

C1415 1558 1413 1564 1410 1567

C1406 1570 1406 1572 1409 1576

C1412 1578 1412 1578 1418 1577

C1428 1574 1455 1575 1464 1578

C1467 1579 1470 1580 1471 1580

C1472 1580 1473 1578 1474 1576

Z

M1562 1577

C1582 1571 1597 1553 1603 1532

C1607 1518 1604 1500 1597 1487

C1592 1477 1581 1466 1571 1461

C1550 1450 1523 1450 1505 1460

C1493 1466 1481 1480 1475 1494

C1472 1501 1471 1506 1471 1515

C1471 1532 1476 1546 1488 1558

C1503 1574 1518 1580 1543 1580

C1552 1579 1557 1579 1562 1577

Z

M1286 1453

C1295 1449 1301 1440 1301 1431

C1301 1422 1299 1417 1294 1411

C1283 1400 1267 1400 1256 1412

C1249 1419 1247 1428 1251 1437

C1253 1443 1259 1451 1264 1453

C1270 1456 1280 1456 1286 1453

Z

M730 1385

C768 1378 801 1364 833 1340

C837 1337 848 1327 858 1318

C879 1298 896 1284 918 1269

C933 1258 945 1251 946 1251

L947 1251

L947 1260

C947 1280 943 1311 938 1336

C937 1343 936 1349 937 1349

C937 1350 942 1349 947 1347

C966 1341 974 1340 1000 1340

C1026 1340 1033 1341 1054 1347

C1059 1349 1064 1350 1065 1350

C1065 1349 1064 1342 1062 1333

C1057 1306 1054 1279 1054 1260

L1054 1251

L1055 1251

C1056 1251 1075 1263 1085 1270

C1109 1286 1122 1297 1144 1318

C1167 1341 1185 1353 1209 1365

C1245 1383 1284 1390 1323 1387

C1367 1384 1406 1370 1441 1346

C1454 1336 1478 1314 1478 1311

C1478 1310 1474 1302 1468 1292

C1455 1270 1412 1196 1358 1102

C1335 1061 1302 1005 1286 977

L1257 926

L1252 926

C1242 928 1221 936 1203 944

C1181 956 1165 968 1139 992

C1129 1002 1116 1013 1107 1020

C1092 1031 1062 1051 1060 1051

L1059 1051

L1059 1051

C1059 1051 1060 1046 1062 1041

C1069 1019 1083 989 1099 963

C1117 933 1133 911 1155 888

C1176 866 1180 862 1190 846

C1200 832 1201 829 1199 826

C1198 825 1177 788 1153 746

C1128 703 1084 627 1055 577

C1026 526 1002 485 1002 484

C1001 484 1000 483 1000 483

C999 483 990 498 980 515

C970 533 939 586 912 632

C886 678 857 729 848 744

C840 758 826 782 818 796

C797 831 799 827 803 834

C811 848 827 869 839 881

C870 911 906 964 927 1010

C934 1026 943 1050 942 1051

L941 1051

L934 1047

C917 1037 892 1020 879 1008

C875 1005 866 996 858 989

C835 966 821 956 796 944

C781 936 766 930 753 927

C745 925 745 925 743 927

C742 928 731 947 718 970

C693 1012 597 1179 571 1225

C530 1294 522 1309 522 1310

C522 1312 539 1329 548 1336

C556 1343 575 1355 586 1361

C610 1374 644 1384 671 1387

C686 1388 716 1387 730 1385

Z

M1305 1561

C1300 1555 1299 1550 1298 1531

C1297 1517 1297 1509 1298 1499

C1299 1484 1301 1478 1305 1471

L1308 1466

L1310 1468

C1312 1471 1315 1478 1316 1485

C1318 1494 1318 1542 1316 1549

C1315 1555 1310 1565 1309 1565

C1309 1565 1307 1563 1305 1561

Z

M1534 1565

C1531 1564 1527 1559 1525 1554

C1521 1544 1519 1522 1521 1499

C1522 1480 1524 1473 1528 1468

C1532 1464 1537 1464 1544 1467

C1553 1471 1555 1485 1555 1524

C1555 1550 1555 1550 1552 1556

C1547 1564 1541 1568 1534 1565

Z

"/>

<path fill="#ececec" stroke="none" d="
M0 1000

L0 0

L1000 0

L2000 0

L2000 1000

L2000 2000

L1000 2000

L0 2000

L0 1000

Z

M984 1620

C987 1617 984 1598 979 1587

C976 1581 971 1577 962 1574

C950 1571 940 1575 921 1590

C907 1602 905 1603 899 1603

C892 1603 889 1596 893 1589

C896 1585 906 1580 922 1576

C959 1565 977 1552 989 1526

C994 1517 996 1510 997 1498

C998 1480 995 1469 986 1460

C982 1456 979 1454 975 1453

C961 1448 947 1453 942 1464

C940 1469 940 1482 942 1488

C945 1494 953 1501 957 1500

L958 1499

L958 1498

C958 1495 962 1492 964 1492

C966 1492 968 1493 970 1494

C975 1499 974 1511 966 1527

C961 1536 954 1543 948 1545

C946 1546 944 1546 943 1546

C943 1545 930 1504 929 1498

C925 1481 925 1474 931 1466

C934 1460 934 1459 930 1455

C927 1453 927 1453 917 1454

C905 1457 887 1456 878 1453

L872 1452

L869 1455

C868 1456 867 1458 866 1459

L866 1461

L864 1460

C858 1458 850 1457 838 1457

C825 1458 825 1458 817 1462

C810 1465 806 1468 799 1475

L789 1485

L789 1471

C788 1447 790 1434 797 1424

C801 1418 801 1417 798 1414

C795 1411 795 1411 790 1412

C773 1415 754 1416 742 1412

C739 1411 735 1411 735 1411

C734 1412 733 1414 731 1416

C729 1420 729 1420 733 1425

C740 1435 743 1450 745 1486

C746 1510 746 1522 743 1539

C741 1557 739 1562 733 1568

L730 1572

L731 1574

C731 1575 733 1577 734 1578

C736 1580 736 1580 747 1579

C760 1576 782 1577 792 1579

C797 1581 798 1581 799 1579

C800 1578 801 1576 802 1574

C802 1572 802 1570 799 1567

C792 1560 789 1549 789 1536

C789 1528 792 1518 794 1517

L795 1516

L799 1522

C804 1529 810 1542 813 1549

C815 1557 814 1563 810 1569

C807 1573 807 1575 811 1579

C814 1581 814 1581 822 1579

C833 1576 856 1576 867 1579

C872 1580 876 1581 876 1580

C877 1580 880 1573 880 1572

C880 1571 878 1569 877 1567

C860 1549 849 1526 849 1511

C849 1505 848 1503 841 1502

C827 1499 815 1495 810 1491

L808 1489

L810 1487

C811 1486 814 1483 818 1482

C826 1478 835 1478 840 1482

C844 1485 844 1489 841 1493

L840 1496

L842 1498

C847 1503 859 1503 867 1499

C872 1497 877 1490 878 1486

L878 1483

L879 1484

C881 1486 897 1534 904 1559

L904 1561

L898 1564

C875 1575 867 1598 881 1612

C887 1618 894 1620 906 1620

C915 1620 921 1619 938 1615

C954 1611 964 1611 972 1614

C974 1615 978 1617 979 1619

C982 1621 982 1621 984 1620

Z

M473 1578

C477 1574 477 1572 472 1566

C465 1556 463 1542 463 1491

C463 1458 463 1452 465 1445

C467 1433 469 1429 473 1425

C477 1420 477 1418 473 1414

L470 1411

L465 1412

C461 1414 457 1414 443 1415

C427 1415 424 1415 418 1413

C414 1412 411 1411 410 1411

C409 1411 405 1417 405 1420

C405 1421 406 1424 408 1426

C416 1435 418 1447 419 1485

C420 1516 420 1530 418 1543

C415 1557 413 1561 409 1566

L405 1571

L408 1575

C409 1577 411 1579 411 1579

C411 1579 415 1578 420 1577

C432 1574 451 1575 462 1578

C471 1581 470 1581 473 1578

Z

M705 1578

C721 1574 730 1567 734 1557

C740 1544 733 1526 719 1520

C711 1517 700 1517 692 1521

C689 1523 687 1525 686 1526

C686 1526 687 1529 689 1532

C698 1545 694 1561 681 1565

C673 1567 665 1565 662 1559

C658 1552 653 1523 654 1508

C656 1488 660 1473 664 1469

C667 1468 671 1468 674 1469

C676 1470 678 1473 680 1477

C689 1494 696 1500 708 1500

C722 1500 729 1491 732 1468

C734 1457 733 1456 726 1458

C719 1461 710 1460 694 1456

C681 1453 677 1453 669 1453

C644 1453 626 1461 615 1479

C609 1487 607 1494 605 1504

C602 1519 603 1532 610 1546

C618 1562 638 1575 660 1580

C671 1582 695 1581 705 1578

Z

M1472 1579

C1473 1579 1475 1577 1476 1575

C1477 1572 1477 1572 1473 1566

C1468 1560 1467 1557 1465 1542

C1463 1529 1463 1454 1465 1446

C1467 1435 1469 1430 1473 1425

L1477 1420

L1476 1418

C1475 1416 1474 1414 1473 1413

L1471 1411

L1465 1413

C1461 1414 1456 1415 1442 1415

C1426 1415 1424 1415 1418 1413

C1415 1412 1411 1411 1411 1411

C1409 1411 1405 1418 1405 1420

C1405 1421 1406 1423 1408 1425

C1412 1431 1415 1436 1416 1445

C1419 1456 1420 1482 1420 1510

C1420 1541 1417 1559 1409 1567

C1405 1570 1405 1572 1409 1576

L1412 1579

L1417 1578

C1425 1575 1444 1574 1455 1576

C1460 1577 1465 1579 1466 1579

C1470 1581 1471 1581 1472 1579

Z

M1556 1580

C1578 1575 1596 1558 1603 1534

C1605 1528 1605 1525 1605 1515

C1604 1500 1602 1492 1595 1482

C1583 1463 1564 1453 1541 1452

C1527 1452 1518 1453 1506 1459

C1489 1467 1474 1487 1471 1505

C1469 1514 1471 1528 1474 1537

C1478 1550 1491 1565 1503 1572

C1517 1580 1539 1583 1556 1580

Z

M559 1577

C575 1574 585 1574 592 1577

C595 1578 598 1579 600 1580

L602 1580

L604 1576

C606 1574 607 1572 607 1572

C607 1571 606 1569 604 1566

C597 1556 594 1533 595 1505

C596 1481 599 1471 604 1464

C607 1461 608 1459 606 1456

C604 1452 603 1452 596 1454

C590 1456 587 1456 573 1456

C560 1456 554 1456 550 1454

L544 1453

L541 1456

C539 1459 538 1462 540 1464

C542 1465 547 1476 549 1484

C551 1491 551 1494 551 1515

C551 1533 551 1539 550 1545

C547 1558 541 1565 533 1565

C526 1565 522 1560 522 1551

C522 1546 522 1544 527 1536

C538 1516 542 1504 542 1489

C542 1474 536 1463 525 1457

C520 1454 511 1454 494 1455

C486 1456 485 1456 481 1454

L477 1452

L475 1453

C474 1454 474 1457 474 1461

C474 1467 474 1469 477 1474

C482 1484 485 1487 491 1487

C497 1487 501 1484 506 1477

C511 1471 514 1469 517 1471

C519 1473 518 1477 515 1482

C514 1483 506 1490 499 1496

C482 1510 480 1512 476 1521

C473 1527 473 1528 473 1538

C473 1548 473 1549 476 1555

C482 1567 492 1576 505 1579

C514 1581 543 1580 559 1577

Z

M1054 1578

C1058 1576 1060 1576 1078 1576

C1095 1576 1097 1576 1102 1578

C1106 1579 1109 1580 1109 1580

C1110 1580 1114 1573 1114 1571

C1114 1570 1113 1568 1111 1567

C1108 1564 1105 1557 1103 1551

C1099 1539 1100 1491 1104 1478

C1107 1465 1122 1462 1127 1473

C1129 1477 1129 1478 1128 1483

C1127 1487 1125 1495 1122 1502

C1115 1520 1113 1529 1113 1542

C1114 1554 1116 1561 1123 1569

C1126 1572 1131 1575 1133 1577

C1138 1579 1140 1579 1150 1580

C1167 1580 1178 1578 1179 1573

L1179 1572

L1174 1569

C1165 1563 1161 1556 1161 1543

C1161 1534 1163 1529 1168 1520

C1171 1515 1174 1509 1175 1506

C1177 1498 1178 1487 1175 1480

C1175 1477 1174 1474 1174 1473

C1175 1471 1183 1468 1187 1468

C1192 1468 1195 1471 1197 1476

C1199 1481 1198 1484 1192 1493

C1184 1504 1176 1518 1174 1525

C1171 1534 1171 1546 1174 1553

C1180 1565 1194 1575 1208 1578

C1219 1581 1228 1580 1237 1575

L1242 1572

L1245 1576

L1247 1580

L1249 1580

C1251 1579 1254 1578 1258 1577

C1265 1574 1274 1575 1296 1578

C1311 1580 1311 1580 1315 1578

C1318 1577 1321 1577 1334 1576

C1349 1576 1351 1576 1367 1580

C1368 1580 1370 1579 1373 1577

L1376 1573

L1375 1571

C1362 1553 1360 1546 1360 1513

C1360 1493 1361 1478 1364 1472

C1368 1465 1374 1464 1379 1469

C1382 1472 1382 1479 1377 1485

C1371 1494 1369 1500 1369 1506

C1369 1516 1376 1527 1385 1531

C1389 1533 1398 1532 1401 1530

L1403 1528

L1402 1525

C1400 1521 1401 1517 1407 1510

C1416 1500 1419 1488 1416 1476

C1414 1472 1413 1470 1408 1465

C1400 1457 1394 1454 1382 1453

C1374 1452 1371 1452 1354 1454

C1333 1457 1326 1457 1316 1454

C1310 1453 1306 1453 1298 1455

C1286 1459 1266 1458 1250 1454

L1246 1453

L1243 1456

C1240 1459 1240 1461 1243 1464

C1248 1468 1251 1476 1254 1490

C1256 1503 1256 1504 1256 1523

C1255 1545 1253 1556 1249 1562

L1247 1565

L1248 1558

C1248 1551 1248 1550 1245 1546

C1243 1543 1240 1540 1238 1539

C1231 1535 1218 1537 1214 1542

L1213 1544

L1216 1548

C1219 1552 1220 1555 1217 1560

C1216 1562 1215 1563 1213 1563

C1209 1563 1208 1561 1207 1556

C1206 1548 1208 1545 1218 1536

C1234 1522 1239 1516 1242 1509

C1245 1503 1245 1502 1245 1493

C1245 1484 1245 1483 1242 1477

C1237 1465 1228 1459 1210 1454

C1197 1450 1182 1452 1167 1458

C1161 1461 1161 1461 1155 1459

C1152 1457 1146 1455 1142 1454

C1131 1451 1115 1452 1096 1456

C1077 1459 1061 1460 1055 1456

C1053 1455 1051 1454 1050 1454

C1049 1454 1044 1462 1044 1464

C1044 1465 1045 1468 1047 1470

C1054 1481 1056 1495 1056 1518

C1056 1544 1054 1556 1047 1564

C1043 1569 1043 1569 1045 1575

L1047 1580

L1048 1580

C1049 1580 1051 1579 1054 1578

Z

M1287 1453

C1297 1448 1303 1439 1302 1428

C1301 1413 1290 1403 1275 1403

C1266 1403 1260 1406 1254 1412

C1248 1420 1246 1428 1250 1438

C1253 1444 1261 1453 1266 1455

C1273 1457 1280 1456 1287 1453

Z

M726 1386

C759 1382 791 1369 819 1351

C835 1340 842 1335 861 1316

C879 1299 886 1293 901 1282

C915 1271 944 1252 946 1252

L947 1252

L947 1256

C947 1262 944 1294 942 1308

C941 1318 937 1341 935 1348

L935 1350

L937 1350

C938 1350 944 1349 949 1347

C965 1342 979 1340 1000 1340

C1022 1340 1035 1342 1053 1348

C1059 1350 1065 1351 1065 1350

C1066 1350 1065 1344 1064 1337

C1062 1330 1060 1320 1059 1314

C1057 1297 1054 1262 1055 1257

L1056 1252

L1067 1259

C1094 1276 1118 1294 1142 1317

C1166 1341 1184 1354 1207 1365

C1240 1381 1271 1388 1308 1388

C1346 1388 1377 1381 1410 1364

C1433 1353 1449 1341 1467 1324

C1476 1315 1479 1312 1479 1311

C1479 1309 1460 1277 1437 1238

C1415 1198 1371 1123 1341 1071

C1246 907 1258 925 1253 926

C1247 926 1223 934 1208 941

C1184 952 1166 966 1142 989

C1118 1012 1102 1024 1073 1043

L1061 1050

L1060 1050

C1060 1049 1067 1029 1072 1017

C1085 985 1106 951 1128 921

C1140 905 1141 904 1160 885

C1167 876 1176 867 1179 864

C1185 855 1200 833 1201 830

C1201 829 1200 826 1197 820

C1194 816 1178 788 1160 758

C1143 727 1123 692 1115 679

C1108 666 1094 643 1085 628

C1010 497 1002 482 1000 482

C999 482 992 492 978 516

C968 535 952 562 944 575

C937 588 923 612 915 627

C874 698 830 773 817 796

C796 832 798 827 802 834

C811 849 823 865 838 881

C860 903 870 915 885 938

C908 971 927 1008 937 1038

C939 1044 941 1050 941 1050

L941 1050

L937 1048

C930 1044 898 1022 887 1013

C880 1009 869 998 861 990

C846 976 838 969 829 962

C811 950 789 938 767 931

C751 925 744 924 742 926

C741 927 736 937 696 1006

C668 1055 554 1252 538 1279

C530 1294 523 1307 522 1308

L521 1311

L530 1320

C569 1360 621 1384 678 1388

C687 1389 715 1388 726 1386

Z

M1532 1563

C1528 1560 1525 1554 1523 1545

C1521 1535 1521 1492 1523 1483

C1525 1471 1529 1466 1536 1466

C1545 1466 1550 1471 1552 1481

C1556 1499 1556 1540 1552 1552

C1550 1560 1545 1565 1539 1565

C1536 1565 1533 1564 1532 1563

Z

M1306 1562

C1302 1558 1300 1551 1299 1540

C1297 1526 1298 1490 1300 1484

C1302 1478 1305 1472 1307 1469

L1309 1467

L1311 1471

C1315 1480 1316 1485 1317 1512

C1317 1529 1317 1540 1316 1545

C1315 1552 1312 1561 1310 1563

L1308 1564

L1306 1562

Z

"/>

<path fill="#ffffff" stroke="none" d="
M0 1000

L0 0

L1000 0

L2000 0

L2000 1000

L2000 2000

L1000 2000

L0 2000

L0 1000

Z

M1952 1000

L1952 49

L1000 49

L49 49

L48 999

C48 1522 48 1950 48 1951

L49 1952

L1000 1952

L1952 1952

L1952 1000

Z

"/>

</svg>

